<?xml version="1.0" encoding="iso-8859-1"?>
<!-- Generator: Adobe Illustrator 17.1.0, SVG Export Plug-In . SVG Version: 6.00 Build 0)  -->
<!DOCTYPE svg PUBLIC "-//W3C//DTD SVG 1.1//EN" "http://www.w3.org/Graphics/SVG/1.1/DTD/svg11.dtd">
<svg version="1.1" id="Capa_1" xmlns="http://www.w3.org/2000/svg" xmlns:xlink="http://www.w3.org/1999/xlink" x="0px" y="0px"
	 viewBox="0 0 296.445 296.445" style="enable-background:new 0 0 296.445 296.445;" xml:space="preserve">
<g>
	<path d="M202.894,267.514L191.006,92.734c8.431-0.453,15.132-7.579,15.132-16.122c0-8.838-7.163-16.167-16-16.167h-137
		c-8.837,0-16,7.162-16,16c0,8.836,7.163,16,16,16h0.129L41.383,267.258c-10.577,8.344-16.245,19.188-16.245,29.188h16
		c0,0,0.017,0,0.019,0h161.963c0.002,0,0.018,0,0.018,0h16C219.138,286.445,213.47,275.844,202.894,267.514z M76.831,184.068
		l45.307-2.924l-20.121-40.699c0,0,6.16-5.979,20.121-5.979c13.961,0,20.121,5.979,20.121,5.979l-20.121,40.699l45.307,2.926
		c0,0,2.099,8.324-4.882,20.412c-6.98,12.09-15.238,14.436-15.238,14.436l-25.187-37.773l-25.187,37.773
		c0,0-8.258-2.344-15.238-14.436C74.732,192.395,76.831,184.068,76.831,184.068z"/>
	<path d="M259.308,0c-18.8,0-28.896,6.639-37.009,11.975C215.212,16.633,210.092,20,198.476,20c-11.617,0-16.738-3.367-23.825-8.025
		C166.537,6.639,156.44,0,137.64,0c-18.8,0-28.897,6.639-37.01,11.975C93.543,16.633,88.422,20,76.805,20c-6.627,0-12,5.373-12,12
		c0,6.627,5.373,12,12,12c18.801,0,28.897-6.639,37.011-11.973C120.902,27.367,126.023,24,137.64,24
		c11.617,0,16.738,3.367,23.825,8.027C169.578,37.361,179.675,44,198.476,44c18.8,0,28.896-6.639,37.009-11.973
		c7.087-4.66,12.207-8.027,23.823-8.027c6.627,0,12-5.373,12-12C271.308,5.373,265.935,0,259.308,0z"/>
</g>
<g>
</g>
<g>
</g>
<g>
</g>
<g>
</g>
<g>
</g>
<g>
</g>
<g>
</g>
<g>
</g>
<g>
</g>
<g>
</g>
<g>
</g>
<g>
</g>
<g>
</g>
<g>
</g>
<g>
</g>
</svg>
