<?xml version="1.0" encoding="iso-8859-1"?>
<!-- Generator: Adobe Illustrator 17.1.0, SVG Export Plug-In . SVG Version: 6.00 Build 0)  -->
<!DOCTYPE svg PUBLIC "-//W3C//DTD SVG 1.1//EN" "http://www.w3.org/Graphics/SVG/1.1/DTD/svg11.dtd">
<svg version="1.1" id="Capa_1" xmlns="http://www.w3.org/2000/svg" xmlns:xlink="http://www.w3.org/1999/xlink" x="0px" y="0px"
	 viewBox="0 0 297 297" style="enable-background:new 0 0 297 297;" xml:space="preserve">
<g>
	<path d="M148.5,0C66.617,0,0,66.617,0,148.5S66.617,297,148.5,297S297,230.383,297,148.5S230.383,0,148.5,0z M189.08,254.273
		l-32.616-82.779c9.527-3.3,16.369-12.346,16.369-22.993c0-1.277-0.1-2.532-0.289-3.757l87.369-11.876
		C266.894,183.611,238.806,234.479,189.08,254.273z M218.256,58.931l-55.535,69.829c-4.001-2.887-8.91-4.594-14.222-4.594
		c-5.888,0-11.286,2.092-15.494,5.572L77.7,58.287C118.155,26.87,176.251,25.762,218.256,58.931z M124.452,144.769
		c-0.188,1.217-0.285,2.463-0.285,3.731c0,9.73,5.713,18.124,13.967,22.018l-33.917,82.862
		c-47.434-19.327-77.442-69.087-69.722-122.047L124.452,144.769z"/>
</g>
<g>
</g>
<g>
</g>
<g>
</g>
<g>
</g>
<g>
</g>
<g>
</g>
<g>
</g>
<g>
</g>
<g>
</g>
<g>
</g>
<g>
</g>
<g>
</g>
<g>
</g>
<g>
</g>
<g>
</g>
</svg>
