<?xml version="1.0" encoding="iso-8859-1"?>
<!-- Generator: Adobe Illustrator 17.1.0, SVG Export Plug-In . SVG Version: 6.00 Build 0)  -->
<!DOCTYPE svg PUBLIC "-//W3C//DTD SVG 1.1//EN" "http://www.w3.org/Graphics/SVG/1.1/DTD/svg11.dtd">
<svg version="1.1" id="Capa_1" xmlns="http://www.w3.org/2000/svg" xmlns:xlink="http://www.w3.org/1999/xlink" x="0px" y="0px"
	 viewBox="0 0 299 299" style="enable-background:new 0 0 299 299;" xml:space="preserve">
<g>
	<path d="M223.833,35H198.5V8c0-4.418-3.249-8-7.667-8h-83C103.415,0,99.5,3.582,99.5,8v27H75.833c-4.418,0-8.333,3.582-8.333,8v248
		c0,4.418,3.915,8,8.333,8h148c4.418,0,7.667-3.582,7.667-8V43C231.5,38.582,228.251,35,223.833,35z M215.5,257c0,4.418-3.582,8-8,8
		h-116c-4.418,0-8-3.582-8-8v-34c0-4.418,3.582-8,8-8h116c4.418,0,8,3.582,8,8V257z M215.5,184c0,4.418-3.582,8-8,8h-116
		c-4.418,0-8-3.582-8-8v-34c0-4.418,3.582-8,8-8h116c4.418,0,8,3.582,8,8V184z M215.5,109c0,4.418-3.582,8-8,8h-116
		c-4.418,0-8-3.582-8-8V75c0-4.418,3.582-8,8-8h116c4.418,0,8,3.582,8,8V109z"/>
</g>
<g>
</g>
<g>
</g>
<g>
</g>
<g>
</g>
<g>
</g>
<g>
</g>
<g>
</g>
<g>
</g>
<g>
</g>
<g>
</g>
<g>
</g>
<g>
</g>
<g>
</g>
<g>
</g>
<g>
</g>
</svg>
