<?xml version="1.0" encoding="iso-8859-1"?>
<!-- Generator: Adobe Illustrator 17.1.0, SVG Export Plug-In . SVG Version: 6.00 Build 0)  -->
<!DOCTYPE svg PUBLIC "-//W3C//DTD SVG 1.1//EN" "http://www.w3.org/Graphics/SVG/1.1/DTD/svg11.dtd">
<svg version="1.1" id="Capa_1" xmlns="http://www.w3.org/2000/svg" xmlns:xlink="http://www.w3.org/1999/xlink" x="0px" y="0px"
	 viewBox="0 0 300 300" style="enable-background:new 0 0 300 300;" xml:space="preserve">
<g>
	<path d="M292,59h-2.333v-8c0-4.418-3.582-8-8-8s-8,3.582-8,8v8h-46V14c0-6.627-5.373-12-12-12c-6.627,0-12,5.373-12,12v45h-46v-8
		c0-4.418-3.582-8-8-8c-4.418,0-8,3.582-8,8v8H140c-4.418,0-8,3.582-8,8s3.582,8,8,8h1.051c-4.195,17.732-21.874,31.725-41.039,42
		h-4.345V72c0-6.628-5.372-12-12-12c-6.628,0-12,5.372-12,12v45h-46v-9c0-4.418-3.582-8-8-8s-8,3.582-8,8v9H8c-4.418,0-8,3.582-8,8
		s3.582,8,8,8h1.667v29.561l9.412-1.688c1.172-0.21,25.588-4.548,52.588-14.331V285c0,6.628,5.372,12,12,12c6.628,0,12-5.372,12-12
		V136.848c3-1.26,5.718-2.542,8.278-3.848h37.722v29.561l9.412-1.688c1.172-0.21,25.588-4.548,52.588-14.331V286
		c0,6.627,5.373,12,12,12c6.627,0,12-5.373,12-12V136.848c16-7.314,29.025-15.408,38.852-24.131
		c12.954-11.498,20.706-24.156,22.837-37.717H292c4.418,0,8-3.582,8-8S296.418,59,292,59z M25.667,133h36.515
		c-14.554,4.908-27.515,8.24-36.515,10.15V133z M129.531,117c1.801-1.41,3.525-2.838,5.154-4.283
		c2.979-2.644,5.502-5.35,7.913-8.112c-0.485,1.032-0.931,2.18-0.931,3.396v9H129.531z M157.667,143.15V133H160c4.418,0,8-3.582,8-8
		s-3.582-8-8-8h-2.333v-9c0-4.418-3.416-8-7.834-8c-1.762,0-3.302,0.576-4.623,1.541c6.57-8.367,10.684-17.241,12.146-26.541h46.311
		v54.508C185.667,136.365,168.667,140.818,157.667,143.15z M227.667,119.084V75h45.384
		C268.565,93.965,248.667,108.646,227.667,119.084z"/>
</g>
<g>
</g>
<g>
</g>
<g>
</g>
<g>
</g>
<g>
</g>
<g>
</g>
<g>
</g>
<g>
</g>
<g>
</g>
<g>
</g>
<g>
</g>
<g>
</g>
<g>
</g>
<g>
</g>
<g>
</g>
</svg>
