<?xml version="1.0" encoding="iso-8859-1"?>
<!-- Generator: Adobe Illustrator 17.1.0, SVG Export Plug-In . SVG Version: 6.00 Build 0)  -->
<!DOCTYPE svg PUBLIC "-//W3C//DTD SVG 1.1//EN" "http://www.w3.org/Graphics/SVG/1.1/DTD/svg11.dtd">
<svg version="1.1" id="Capa_1" xmlns="http://www.w3.org/2000/svg" xmlns:xlink="http://www.w3.org/1999/xlink" x="0px" y="0px"
	 viewBox="0 0 297.034 297.034" style="enable-background:new 0 0 297.034 297.034;" xml:space="preserve">
<g>
	<path d="M234.184,130.034c4.418,0,8-3.582,8-8v-9h2.333c4.418,0,8-3.582,8-8s-3.582-8-8-8h-54.333v-24h16v9c0,4.418,3.582,8,8,8
		s8-3.582,8-8v-9h2.333c4.418,0,8-3.582,8-8s-3.582-8-8-8h-37.455L155.423,3.938c-0.35-0.586-2.215-2.455-2.807-2.808
		c-3.797-2.264-8.705-1.02-10.968,2.774l-31.676,53.129H72.517c-4.418,0-8,3.582-8,8s3.582,8,8,8h1.667v9c0,4.418,3.582,8,8,8
		s8-3.582,8-8v-9h16v24H52.517c-4.418,0-8,3.582-8,8s3.582,8,8,8h1.667v9c0,4.418,3.582,8,8,8s8-3.582,8-8v-9h36v27.853
		c0,0.346,0,0.692,0,1.041v36.68l-30.752,83.898c-15.589,9.245-23.915,21.265-23.915,34.528h194
		c0-13.199-8.575-25.137-24.021-34.357L190.184,178.6v-65.566h36v9C226.184,126.452,229.766,130.034,234.184,130.034z
		 M148.517,245.426c-18.921,0-37.049,2.808-52.505,7.958l6.744-18.299l45.808-26.228l45.841,26.297l6.787,18.322
		C185.698,248.279,167.507,245.426,148.517,245.426z M122.184,155.183l43.951,25.084l-17.812,10.15l-26.139-14.946V155.183z
		 M118.728,191.744l13.751,7.888l-21.112,12.088L118.728,191.744z M164.656,199.644l13.689-7.838l7.382,19.925L164.656,199.644z
		 M130.705,141.626l43.479-23.179v48.087L130.705,141.626z M174.184,91.318L143.59,73.034h30.594V91.318z M148.525,23.616
		l19.912,33.418h-39.836L148.525,23.616z M122.184,79.163l30.561,17.871h-30.561V79.163z M150.66,113.034l-28.477,15.003v-15.003
		H150.66z"/>
</g>
<g>
</g>
<g>
</g>
<g>
</g>
<g>
</g>
<g>
</g>
<g>
</g>
<g>
</g>
<g>
</g>
<g>
</g>
<g>
</g>
<g>
</g>
<g>
</g>
<g>
</g>
<g>
</g>
<g>
</g>
</svg>
