<?xml version="1.0" encoding="iso-8859-1"?>
<!-- Generator: Adobe Illustrator 17.1.0, SVG Export Plug-In . SVG Version: 6.00 Build 0)  -->
<!DOCTYPE svg PUBLIC "-//W3C//DTD SVG 1.1//EN" "http://www.w3.org/Graphics/SVG/1.1/DTD/svg11.dtd">
<svg version="1.1" id="Capa_1" xmlns="http://www.w3.org/2000/svg" xmlns:xlink="http://www.w3.org/1999/xlink" x="0px" y="0px"
	 viewBox="0 0 295 295" style="enable-background:new 0 0 295 295;" xml:space="preserve">
<g>
	<path d="M231,81c8.837,0,16-7.163,16-16s-7.163-16-16-16h-1.333V32H231c8.837,0,16-7.163,16-16s-7.163-16-16-16H64
		c-8.837,0-16,7.163-16,16s7.163,16,16,16h1.667v17H64c-8.837,0-16,7.163-16,16s7.163,16,16,16h1.667v134H64
		c-8.837,0-16,7.163-16,16s7.163,16,16,16h1.667v16H64c-8.837,0-16,7.163-16,16s7.163,16,16,16h167c8.837,0,16-7.163,16-16
		s-7.163-16-16-16h-1.333v-16H231c8.837,0,16-7.163,16-16s-7.163-16-16-16h-1.333V81H231z M147.667,213.5
		c-36.174,0-65.5-29.326-65.5-65.5s29.326-65.5,65.5-65.5c36.174,0,65.5,29.326,65.5,65.5S183.841,213.5,147.667,213.5z"/>
	<path d="M147.667,107c-1.181,0-2.301,0.521-3.061,1.425c-2.859,3.398-27.939,33.664-27.939,49.575c0,17.094,13.906,31,31,31
		c17.094,0,31-13.906,31-31c0-15.911-25.08-46.177-27.94-49.575C149.968,107.521,148.848,107,147.667,107z"/>
</g>
<g>
</g>
<g>
</g>
<g>
</g>
<g>
</g>
<g>
</g>
<g>
</g>
<g>
</g>
<g>
</g>
<g>
</g>
<g>
</g>
<g>
</g>
<g>
</g>
<g>
</g>
<g>
</g>
<g>
</g>
</svg>
