<?xml version="1.0" encoding="iso-8859-1"?>
<!-- Generator: Adobe Illustrator 17.1.0, SVG Export Plug-In . SVG Version: 6.00 Build 0)  -->
<!DOCTYPE svg PUBLIC "-//W3C//DTD SVG 1.1//EN" "http://www.w3.org/Graphics/SVG/1.1/DTD/svg11.dtd">
<svg version="1.1" id="Capa_1" xmlns="http://www.w3.org/2000/svg" xmlns:xlink="http://www.w3.org/1999/xlink" x="0px" y="0px"
	 viewBox="0 0 297 297" style="enable-background:new 0 0 297 297;" xml:space="preserve">
<g>
	<path d="M248,164V35c0-4.418-3.249-8-7.667-8H232V8c0-4.418-3.249-8-7.667-8h-35C184.915,0,181,3.582,181,8v19h-13.001
		c-1.968,0-3.867,0.726-5.334,2.038L154.883,36h-79.55C66.496,36,59,43.163,59,52v69.478l-7.334,6.561
		C49.97,129.556,49,131.724,49,134v30H248z M91,68h28.112L91,92.851V68z"/>
	<path d="M49,263v26c0,4.418,3.915,8,8.333,8h183c4.418,0,7.667-3.582,7.667-8v-26H49z"/>
	<path d="M149.333,245c13.271,0,24.067-10.797,24.067-24.067c0-12.19-18.857-34.952-21.007-37.508
		c-0.76-0.903-1.88-1.425-3.061-1.425c-1.181,0-2.301,0.521-3.06,1.425c-2.15,2.556-21.008,25.317-21.008,37.508
		C125.265,234.203,136.061,245,149.333,245z"/>
</g>
<g>
</g>
<g>
</g>
<g>
</g>
<g>
</g>
<g>
</g>
<g>
</g>
<g>
</g>
<g>
</g>
<g>
</g>
<g>
</g>
<g>
</g>
<g>
</g>
<g>
</g>
<g>
</g>
<g>
</g>
</svg>
