<?xml version="1.0" encoding="iso-8859-1"?>
<!-- Generator: Adobe Illustrator 17.1.0, SVG Export Plug-In . SVG Version: 6.00 Build 0)  -->
<!DOCTYPE svg PUBLIC "-//W3C//DTD SVG 1.1//EN" "http://www.w3.org/Graphics/SVG/1.1/DTD/svg11.dtd">
<svg version="1.1" id="Capa_1" xmlns="http://www.w3.org/2000/svg" xmlns:xlink="http://www.w3.org/1999/xlink" x="0px" y="0px"
	 viewBox="0 0 296.669 296.669" style="enable-background:new 0 0 296.669 296.669;" xml:space="preserve">
<g>
	<path d="M286.667,296.669c0-12.044-5.666-23.316-15.666-33.192v-65.808c0-4.418-3.249-8-7.667-8h-9.333v-151.9l17.924-6.833
		c8.247-3.174,12.444-12.432,9.27-20.679c-3.174-8.248-12.392-12.356-20.637-9.186L79.887,70.604l-3.679-8.963
		c-0.808-1.962-2.356-3.524-4.315-4.34l-23.929-9.974c-2.02-0.841-4.295-0.82-6.296,0.061c-2.002,0.881-3.556,2.543-4.301,4.601
		l-8.433,23.297c-0.677,1.871-0.633,3.928,0.125,5.768l3.24,7.87l-7.722,2.972c-8.247,3.174-12.36,12.432-9.186,20.679
		c2.446,6.357,8.509,10.258,14.936,10.258c1.911,0,3.687-0.345,5.577-1.071l2.099-0.872v131.964c-17,12.039-28,27.192-28,43.815
		H286.667z M175.956,226.53l-53.867-43.968l4.053-14.054l57.533,48.059l3.204,11.303C183.3,227.35,179.657,226.904,175.956,226.53z
		 M130.987,151.708l4.239-14.7l32.597,23.644l8.108,28.6L130.987,151.708z M139.94,120.662l8.344-28.934l12.485,44.041
		L139.94,120.662z M117.269,199.28l31.706,25.879c-0.214,0-0.427-0.004-0.641-0.004c-13.724,0-26.917,0.99-39.346,2.836
		L117.269,199.28z M238.001,189.669h-7.667c-4.418,0-8.333,3.582-8.333,8v38.282c-5-1.835-11.509-3.46-17.745-4.856l-44.59-156.992
		l78.335-30.177V189.669z M54.001,132.433l24.093,19.687c1.457,1.198,3.343,1.822,5.167,1.822c1.027,0,2.103-0.198,3.086-0.603
		c2.728-1.122,4.637-3.654,4.935-6.588l3.758-36.869c0.134-1.312-0.054-2.636-0.556-3.854l-2.396-5.825l41.728-16.058L91.22,231.286
		c-13.724,3.133-26.219,7.377-37.219,12.522V132.433z"/>
</g>
<g>
</g>
<g>
</g>
<g>
</g>
<g>
</g>
<g>
</g>
<g>
</g>
<g>
</g>
<g>
</g>
<g>
</g>
<g>
</g>
<g>
</g>
<g>
</g>
<g>
</g>
<g>
</g>
<g>
</g>
</svg>
