<?xml version="1.0" encoding="iso-8859-1"?>
<!-- Generator: Adobe Illustrator 17.1.0, SVG Export Plug-In . SVG Version: 6.00 Build 0)  -->
<!DOCTYPE svg PUBLIC "-//W3C//DTD SVG 1.1//EN" "http://www.w3.org/Graphics/SVG/1.1/DTD/svg11.dtd">
<svg version="1.1" id="Capa_1" xmlns="http://www.w3.org/2000/svg" xmlns:xlink="http://www.w3.org/1999/xlink" x="0px" y="0px"
	 viewBox="0 0 297.5 297.5" style="enable-background:new 0 0 297.5 297.5;" xml:space="preserve">
<g>
	<path d="M148.569,49.834c-45.904,0-83.327,37.346-83.327,83.25c0,30.362,16.174,57.686,42.174,72.465v16.832
		c-6,2.49-9.438,8.093-9.438,14.619c0,6.027,3.372,11.271,8.296,14c-4.924,2.729-8.24,8.223-8.24,14.25
		c0,8.837,7.182,16.25,16.018,16.25h1.951c7.396,9,19.086,16,32.244,16c13.16,0,24.848-7,32.244-16h1.59c8.838,0,16-7.413,16-16.25
		c0-6.027-3.336-11.396-8.26-14.125c4.924-2.729,8.185-8.035,8.185-14.063c0-6.131-3.591-11.514-8.591-14.199v-17.314
		c26-14.779,42.326-42.102,42.326-72.465C231.743,87.18,194.474,49.834,148.569,49.834z M177.979,193.533
		c-2.744,1.343-4.562,4.132-4.562,7.188V221.5h-17v-65.843c0,0.009,1.076,0.016,1.548,0.016c7.145,0,17.406-1.183,25.335-6.819
		c18.352-13.043,12.223-33.691,11.952-34.564c-0.697-2.24-2.323-4.062-4.483-4.981c-5.355-2.282-10.777-3.439-16.132-3.439
		c-9.967,0-18.917,3.991-25.212,11.239c-0.236,0.271-0.452,0.555-0.679,0.832c-0.225-0.277-0.444-0.561-0.678-0.832
		c-6.297-7.248-15.251-11.239-25.216-11.239c-5.357,0-10.789,1.157-16.144,3.439c-2.158,0.92-3.805,2.741-4.502,4.981
		c-0.271,0.873-6.441,21.521,11.908,34.564c7.93,5.637,17.943,6.819,25.085,6.819c0.475,0,1.217-0.007,1.217-0.016V221.5h-17
		v-20.779c0-3.056-1.665-5.845-4.411-7.188c-23.293-11.387-37.725-34.549-37.725-60.449c0-37.082,30.186-67.25,67.268-67.25
		c37.082,0,67.223,30.168,67.223,67.25C215.772,158.984,201.274,182.146,177.979,193.533z M156.901,139.658
		c0.32-4.769,1.889-8.929,4.607-12.059c3.211-3.696,7.877-5.731,13.139-5.731c1.922,0,3.893,0.264,5.891,0.787
		c0.137,3.631-0.768,9.137-6.424,13.157c-3.502,2.489-9.178,3.86-15.982,3.86C157.71,139.673,157.3,139.668,156.901,139.658z
		 M140.597,139.658c-0.396,0.01-0.809,0.015-1.23,0.015c-6.803,0-12.479-1.371-15.982-3.86c-5.666-4.028-6.563-9.548-6.428-13.155
		c2-0.524,3.973-0.789,5.896-0.789c5.262,0,9.926,2.035,13.137,5.731C138.708,130.73,140.278,134.89,140.597,139.658z"/>
	<path d="M148.417,35c6.627,0,12-5.373,12-12V12c0-6.627-5.373-12-12-12c-6.627,0-12,5.373-12,12v11
		C136.417,29.627,141.79,35,148.417,35z"/>
	<path d="M79.579,46.374c2.293,3.568,6.158,5.514,10.107,5.514c2.221,0,4.469-0.616,6.477-1.905
		c5.574-3.583,7.189-11.007,3.607-16.583l-5.945-9.254c-3.582-5.575-11.006-7.189-16.584-3.608
		c-5.574,3.583-7.189,11.007-3.607,16.583L79.579,46.374z"/>
	<path d="M54.513,75.435l-10.004-4.571c-6.031-2.752-13.148-0.099-15.902,5.928c-2.754,6.028-0.1,13.147,5.928,15.902l10.004,4.571
		c1.617,0.738,3.313,1.088,4.981,1.088c4.553,0,8.906-2.604,10.922-7.016C63.194,85.309,60.54,78.189,54.513,75.435z"/>
	<path d="M39.159,135.265l-10.889,1.563c-6.56,0.941-11.115,7.022-10.174,13.582c0.857,5.982,5.99,10.298,11.863,10.298
		c0.566,0,1.141-0.041,1.719-0.124l10.889-1.563c6.561-0.941,11.115-7.022,10.174-13.582C51.8,138.88,45.724,134.32,39.159,135.265z
		"/>
	<path d="M269.243,136.642l-10.887-1.574c-6.574-0.952-12.646,3.6-13.596,10.159c-0.947,6.56,3.602,12.646,10.16,13.595
		l10.887,1.574c0.582,0.084,1.16,0.125,1.732,0.125c5.867,0,10.998-4.308,11.861-10.284
		C280.351,143.677,275.802,137.591,269.243,136.642z"/>
	<path d="M252.839,97.088l10.01-4.561c6.031-2.747,8.693-9.863,5.945-15.895c-2.746-6.032-9.865-8.695-15.894-5.945l-10.01,4.561
		c-6.031,2.747-8.693,9.863-5.945,15.895c2.012,4.419,6.369,7.028,10.926,7.028C249.534,98.171,251.226,97.823,252.839,97.088z"/>
	<path d="M201.13,49.865c2.01,1.295,4.262,1.913,6.486,1.913c3.943,0,7.807-1.941,10.1-5.503l5.957-9.248
		c3.59-5.571,1.982-12.997-3.59-16.586c-5.57-3.59-12.996-1.982-16.586,3.59l-5.957,9.248
		C193.952,38.851,195.558,46.276,201.13,49.865z"/>
</g>
<g>
</g>
<g>
</g>
<g>
</g>
<g>
</g>
<g>
</g>
<g>
</g>
<g>
</g>
<g>
</g>
<g>
</g>
<g>
</g>
<g>
</g>
<g>
</g>
<g>
</g>
<g>
</g>
<g>
</g>
</svg>
