<?xml version="1.0" encoding="iso-8859-1"?>
<!-- Generator: Adobe Illustrator 17.1.0, SVG Export Plug-In . SVG Version: 6.00 Build 0)  -->
<!DOCTYPE svg PUBLIC "-//W3C//DTD SVG 1.1//EN" "http://www.w3.org/Graphics/SVG/1.1/DTD/svg11.dtd">
<svg version="1.1" id="Capa_1" xmlns="http://www.w3.org/2000/svg" xmlns:xlink="http://www.w3.org/1999/xlink" x="0px" y="0px"
	 viewBox="0 0 297 297" style="enable-background:new 0 0 297 297;" xml:space="preserve">
<g>
	<path d="M148.319,50.334c-45.904,0-83.417,37.346-83.417,83.25c0,30.362,16.083,57.686,42.083,72.465v16.286
		c-5,1.285-9.5,6.237-9.5,12.165c0,6.903,5.763,12.5,12.666,12.5h10.765c-4.466,1.906-7.598,6.337-7.598,11.5
		c0,6.903,5.597,12.5,12.5,12.5h7.167v11.565c0,7.959,7.309,14.435,15.268,14.435h0.131c7.959,0,13.602-6.476,13.602-14.435V271
		h7.833c6.903,0,12.5-5.597,12.5-12.5c0-5.163-3.132-9.594-7.598-11.5h10.765c6.903,0,12.333-5.597,12.333-12.5
		c0-5.565-3.833-10.276-8.833-11.895v-16.556c27-14.779,42.417-42.102,42.417-72.465C231.402,87.68,194.223,50.334,148.319,50.334z
		 M148.104,171.544L134.919,130h25.648L148.104,171.544z M177.639,194.033c-2.745,1.343-4.653,4.132-4.653,7.188V222h-17v-21.989
		l22.83-75.712c0.727-2.422,0.348-5.046-1.162-7.074c-1.509-2.029-3.805-3.225-6.335-3.225h-47.333
		c-2.551,0-4.949,1.259-6.456,3.317c-1.507,2.06-2.107,4.754-1.335,7.186l23.791,75.566V222h-17v-20.779
		c0-3.056-1.575-5.845-4.32-7.188c-23.294-11.387-37.68-34.549-37.68-60.449c0-37.082,30.21-67.25,67.292-67.25
		s67.188,30.168,67.188,67.25C215.465,159.484,200.933,182.646,177.639,194.033z"/>
	<path d="M147.986,35c6.627,0,12-5.373,12-12V12c0-6.627-5.373-12-12-12s-12,5.373-12,12v11C135.986,29.627,141.359,35,147.986,35z"
		/>
	<path d="M79.33,46.874c2.293,3.568,6.158,5.514,10.107,5.514c2.221,0,4.468-0.616,6.476-1.905
		c5.575-3.583,7.19-11.007,3.608-16.583l-5.946-9.254c-3.582-5.575-11.005-7.19-16.583-3.608
		c-5.575,3.583-7.191,11.007-3.608,16.583L79.33,46.874z"/>
	<path d="M54.263,75.935l-10.005-4.571c-6.031-2.752-13.149-0.099-15.902,5.928c-2.754,6.028-0.1,13.147,5.928,15.902l10.005,4.571
		c1.617,0.738,3.312,1.088,4.98,1.088c4.553,0,8.907-2.604,10.923-7.016C62.945,85.809,60.291,78.689,54.263,75.935z"/>
	<path d="M38.909,135.765l-10.889,1.563c-6.561,0.941-11.115,7.022-10.174,13.582c0.858,5.982,5.99,10.298,11.863,10.298
		c0.566,0,1.142-0.041,1.719-0.124l10.889-1.563c6.561-0.941,11.115-7.022,10.174-13.582
		C51.549,139.379,45.466,134.825,38.909,135.765z"/>
	<path d="M268.993,137.142l-10.887-1.574c-6.572-0.954-12.646,3.601-13.595,10.159c-0.948,6.56,3.601,12.646,10.159,13.595
		l10.887,1.574c0.583,0.084,1.161,0.125,1.732,0.125c5.867,0,10.998-4.308,11.862-10.284
		C280.1,144.177,275.551,138.091,268.993,137.142z"/>
	<path d="M252.588,97.588l10.011-4.561c6.031-2.747,8.693-9.863,5.945-15.895c-2.748-6.032-9.867-8.695-15.895-5.945l-10.011,4.561
		c-6.031,2.747-8.693,9.863-5.945,15.895c2.013,4.419,6.369,7.028,10.927,7.028C249.285,98.671,250.976,98.323,252.588,97.588z"/>
	<path d="M200.88,50.365c2.01,1.295,4.261,1.913,6.486,1.913c3.943,0,7.806-1.941,10.1-5.503l5.957-9.248
		c3.589-5.571,1.982-12.997-3.59-16.586c-5.571-3.59-12.997-1.982-16.586,3.59l-5.957,9.248
		C193.702,39.351,195.308,46.776,200.88,50.365z"/>
</g>
<g>
</g>
<g>
</g>
<g>
</g>
<g>
</g>
<g>
</g>
<g>
</g>
<g>
</g>
<g>
</g>
<g>
</g>
<g>
</g>
<g>
</g>
<g>
</g>
<g>
</g>
<g>
</g>
<g>
</g>
</svg>
