<?xml version="1.0" encoding="iso-8859-1"?>
<!-- Generator: Adobe Illustrator 17.1.0, SVG Export Plug-In . SVG Version: 6.00 Build 0)  -->
<!DOCTYPE svg PUBLIC "-//W3C//DTD SVG 1.1//EN" "http://www.w3.org/Graphics/SVG/1.1/DTD/svg11.dtd">
<svg version="1.1" id="Capa_1" xmlns="http://www.w3.org/2000/svg" xmlns:xlink="http://www.w3.org/1999/xlink" x="0px" y="0px"
	 viewBox="0 0 298.083 298.083" style="enable-background:new 0 0 298.083 298.083;" xml:space="preserve">
<path d="M293.919,110.651c-9.304-38.909-33.204-71.867-67.297-92.801c-7.531-4.625-17.384-2.268-22.007,5.263
	c-4.624,7.53-2.268,17.383,5.263,22.007c26.809,16.462,45.603,42.377,52.919,72.974c7.316,30.597,2.28,62.211-14.182,89.02
	c-17.164,27.953-47.094,43.373-77.715,43.371c-16.232-0.001-32.661-4.088-47.479-13.186c-14.6-8.965-25.252-23.318-30.167-39.318
	h33.328c4.418,0,7.417-4.076,7.417-8.494V125.98h6.583c4.418,0,7.417-4.076,7.417-8.494v-15c0-4.418-2.999-7.506-7.417-7.506H120
	V35.485c0-8.837-7.163-16-16-16s-16,7.163-16,16V94.98H60V35.485c0-8.837-7.163-16-16-16s-16,7.163-16,16V94.98H8.583
	C4.165,94.98,0,98.067,0,102.485v15c0,4.418,4.165,8.494,8.583,8.494H15v63.506c0,4.418,4.165,8.494,8.583,8.494h36.726
	c5.619,27,22.326,51.824,46.369,66.588c20.029,12.299,42.229,18.033,64.17,18.033c41.383-0.002,81.841-20.905,105.037-58.682
	C296.818,189.826,303.224,149.561,293.919,110.651z"/>
<g>
</g>
<g>
</g>
<g>
</g>
<g>
</g>
<g>
</g>
<g>
</g>
<g>
</g>
<g>
</g>
<g>
</g>
<g>
</g>
<g>
</g>
<g>
</g>
<g>
</g>
<g>
</g>
<g>
</g>
</svg>
