<?xml version="1.0" encoding="iso-8859-1"?>
<!-- Generator: Adobe Illustrator 17.1.0, SVG Export Plug-In . SVG Version: 6.00 Build 0)  -->
<!DOCTYPE svg PUBLIC "-//W3C//DTD SVG 1.1//EN" "http://www.w3.org/Graphics/SVG/1.1/DTD/svg11.dtd">
<svg version="1.1" id="Capa_1" xmlns="http://www.w3.org/2000/svg" xmlns:xlink="http://www.w3.org/1999/xlink" x="0px" y="0px"
	 viewBox="0 0 299 299" style="enable-background:new 0 0 299 299;" xml:space="preserve">
<g>
	<path d="M298.5,16c0-8.837-7.163-16-16-16h-266c-8.837,0-16,7.163-16,16v267c0,8.837,7.163,16,16,16h266c8.837,0,16-7.163,16-16V16
		z M50.999,149c0-54.497,44.337-98.834,98.834-98.834S248.667,94.503,248.667,149s-44.337,98.834-98.834,98.834
		S50.999,203.497,50.999,149z"/>
	<rect x="99.5" y="99" width="16" height="35"/>
	<rect x="182.5" y="99" width="16" height="35"/>
	<path d="M170.5,184c0-4.418-3.582-8-8-8h-27c-4.418,0-8,3.582-8,8v16c0,4.418,3.582,8,8,8h27c4.418,0,8-3.582,8-8V184z"/>
</g>
<g>
</g>
<g>
</g>
<g>
</g>
<g>
</g>
<g>
</g>
<g>
</g>
<g>
</g>
<g>
</g>
<g>
</g>
<g>
</g>
<g>
</g>
<g>
</g>
<g>
</g>
<g>
</g>
<g>
</g>
</svg>
