<?xml version="1.0" encoding="iso-8859-1"?>
<!-- Generator: Adobe Illustrator 17.1.0, SVG Export Plug-In . SVG Version: 6.00 Build 0)  -->
<!DOCTYPE svg PUBLIC "-//W3C//DTD SVG 1.1//EN" "http://www.w3.org/Graphics/SVG/1.1/DTD/svg11.dtd">
<svg version="1.1" id="Capa_1" xmlns="http://www.w3.org/2000/svg" xmlns:xlink="http://www.w3.org/1999/xlink" x="0px" y="0px"
	 viewBox="0 0 298.001 298.001" style="enable-background:new 0 0 298.001 298.001;" xml:space="preserve">
<g>
	<path d="M16,92.89c6.45,0,8.997,2.169,15.414,8.441c7.581,7.41,17.963,17.559,37.782,17.559c19.82,0,30.203-10.148,37.783-17.558
		c6.418-6.273,8.966-8.442,15.416-8.442c6.45,0,8.997,2.169,15.414,8.441c7.581,7.41,17.963,17.559,37.783,17.559
		c19.821,0,30.204-10.147,37.785-17.558c6.418-6.273,8.967-8.442,15.419-8.442c6.452,0,9.001,2.169,15.419,8.442
		c7.581,7.41,17.964,17.558,37.785,17.558c8.837,0,16-7.163,16-16c0-8.837-7.163-16-16-16c-6.452,0-9-2.169-15.418-8.442
		c-7.581-7.409-17.964-17.558-37.786-17.558c-19.822,0-30.205,10.148-37.786,17.558c-6.418,6.273-8.966,8.442-15.418,8.442
		c-6.45,0-8.997-2.169-15.414-8.441c-7.581-7.41-17.963-17.559-37.783-17.559S92.192,71.039,84.612,78.448
		c-6.418,6.273-8.966,8.442-15.416,8.442c-6.449,0-8.997-2.169-15.413-8.441C46.202,71.039,35.82,60.89,16,60.89
		c-8.837,0-16,7.163-16,16C0,85.727,7.163,92.89,16,92.89z"/>
	<path d="M282.001,146.001c-6.452,0-9-2.169-15.418-8.442c-7.581-7.409-17.964-17.558-37.786-17.558
		c-19.822,0-30.205,10.148-37.786,17.558c-6.418,6.273-8.966,8.442-15.418,8.442c-6.45,0-8.997-2.169-15.414-8.441
		c-7.581-7.41-17.963-17.559-37.783-17.559s-30.203,10.148-37.783,17.558c-6.418,6.273-8.966,8.442-15.416,8.442
		c-6.449,0-8.997-2.169-15.413-8.441c-7.581-7.41-17.963-17.559-37.783-17.559c-8.837,0-16,7.163-16,16s7.163,16,16,16
		c6.45,0,8.997,2.169,15.414,8.441c7.581,7.41,17.963,17.559,37.782,17.559c19.82,0,30.203-10.148,37.783-17.558
		c6.418-6.273,8.966-8.442,15.416-8.442c6.45,0,8.997,2.169,15.414,8.441c7.581,7.41,17.963,17.559,37.783,17.559
		c19.821,0,30.204-10.148,37.785-17.558c6.418-6.273,8.967-8.442,15.419-8.442c6.452,0,9.001,2.169,15.419,8.442
		c7.581,7.41,17.964,17.558,37.785,17.558c8.837,0,16-7.163,16-16S290.838,146.001,282.001,146.001z"/>
	<path d="M282.001,205.111c-6.452,0-9-2.169-15.418-8.442c-7.581-7.409-17.964-17.558-37.786-17.558
		c-19.822,0-30.205,10.148-37.786,17.558c-6.418,6.273-8.966,8.442-15.418,8.442c-6.45,0-8.997-2.169-15.414-8.441
		c-7.581-7.41-17.963-17.559-37.783-17.559s-30.203,10.148-37.783,17.558c-6.418,6.273-8.966,8.442-15.416,8.442
		c-6.449,0-8.997-2.169-15.413-8.441c-7.581-7.41-17.963-17.559-37.783-17.559c-8.837,0-16,7.163-16,16c0,8.837,7.163,16,16,16
		c6.45,0,8.997,2.169,15.414,8.441c7.581,7.41,17.963,17.559,37.782,17.559c19.82,0,30.203-10.148,37.783-17.558
		c6.418-6.273,8.966-8.442,15.416-8.442c6.45,0,8.997,2.169,15.414,8.441c7.581,7.41,17.963,17.559,37.783,17.559
		c19.821,0,30.204-10.148,37.785-17.558c6.418-6.273,8.967-8.442,15.419-8.442c6.452,0,9.001,2.169,15.419,8.442
		c7.581,7.41,17.964,17.558,37.785,17.558c8.837,0,16-7.163,16-16C298.001,212.274,290.838,205.111,282.001,205.111z"/>
</g>
<g>
</g>
<g>
</g>
<g>
</g>
<g>
</g>
<g>
</g>
<g>
</g>
<g>
</g>
<g>
</g>
<g>
</g>
<g>
</g>
<g>
</g>
<g>
</g>
<g>
</g>
<g>
</g>
<g>
</g>
</svg>
