<?xml version="1.0" encoding="iso-8859-1"?>
<!-- Generator: Adobe Illustrator 17.1.0, SVG Export Plug-In . SVG Version: 6.00 Build 0)  -->
<!DOCTYPE svg PUBLIC "-//W3C//DTD SVG 1.1//EN" "http://www.w3.org/Graphics/SVG/1.1/DTD/svg11.dtd">
<svg version="1.1" id="Capa_1" xmlns="http://www.w3.org/2000/svg" xmlns:xlink="http://www.w3.org/1999/xlink" x="0px" y="0px"
	 viewBox="0 0 296 296" style="enable-background:new 0 0 296 296;" xml:space="preserve">
<g>
	<polygon points="79.685,125.5 139.667,125.5 139.667,76.5 82.951,76.5 	"/>
	<polygon points="155.667,76.5 155.667,125.5 215.652,125.5 212.385,76.5 	"/>
	<path d="M295.944,191.555l-20-168C275.465,19.53,272.053,16.5,268,16.5H28c-4.053,0-7.465,3.03-7.944,7.055l-20,168
		c-0.27,2.27,0.444,4.548,1.963,6.257C3.536,199.522,5.714,200.5,8,200.5h99.667v45.041c-20,6.942-33.334,19.285-33.334,33.959
		h147.334c0-14.674-13-27.017-34-33.959V200.5H288c2.286,0,4.464-0.979,5.981-2.689C295.5,196.103,296.214,193.825,295.944,191.555z
		 M235.087,176.5h-16.035l-2.334-35h-61.051v35h-16v-35H78.618l-2.334,35H60.249l2.333-35H30.185l1.904-16h31.56l3.267-49H37.923
		l1.904-16h28.155l1.333-20h16.036l-1.334,20h55.649v-20h16v20h55.651l-1.334-20h16.036l1.333,20h28.819l1.904,16h-29.656l3.267,49
		h32.224l1.904,16h-33.061L235.087,176.5z"/>
</g>
<g>
</g>
<g>
</g>
<g>
</g>
<g>
</g>
<g>
</g>
<g>
</g>
<g>
</g>
<g>
</g>
<g>
</g>
<g>
</g>
<g>
</g>
<g>
</g>
<g>
</g>
<g>
</g>
<g>
</g>
</svg>
